<?xml version="1.0" encoding="UTF-8"?>
<svg xmlns="http://www.w3.org/2000/svg" xmlns:xlink="http://www.w3.org/1999/xlink" width="43px"
    height="42px" viewBox="0 0 161 158" version="1.1">
    <g id="surface1">
        <path
            style="fill:none;stroke-width:12;stroke-linecap:butt;stroke-linejoin:miter;stroke:hsl(169, 86%, 28%);stroke-opacity:1;stroke-miterlimit:4;"
            d="M 116.833948 193.531448 C 117.405085 192.908426 117.971031 192.280212 118.521399 191.646806 L 168.17401 160.225722 C 206.289645 136.109573 217.359326 86.091278 192.815994 48.523042 C 189.155522 42.921034 181.616508 41.332328 175.977824 44.904322 L 125.76446 76.678451 C 121.371894 70.162678 116.086277 64.072636 109.917993 58.58485 L 52.492721 7.497033 C 46.854037 2.481705 38.167556 2.907437 33.058472 8.467909 C -2.892032 47.609276 0.212878 108.042425 39.974427 143.414508 L 97.404891 194.502324 C 103.043575 199.517652 111.724864 199.09192 116.833948 193.531448 Z M 116.833948 193.531448 "
            transform="matrix(0.752336,0,0,0.752381,0,0)" />
        <path
            style="fill:none;stroke-width:12;stroke-linecap:butt;stroke-linejoin:miter;stroke:hsl(169, 86%, 28%);stroke-opacity:1;stroke-miterlimit:4;"
            d="M 115.120536 194.336185 C 115.525524 193.894877 115.92532 193.45357 116.319924 193.007071 L 153.687888 169.519136 C 182.930124 151.145174 191.450456 112.995451 172.597729 84.336432 C 169.529163 79.67415 163.251844 78.376187 158.552941 81.325158 L 121.423816 104.66253 C 118.168333 100.000247 114.305367 95.6339 109.829726 91.682902 L 66.464819 53.367039 C 61.812646 49.260285 54.657851 49.602947 50.441819 54.166584 C 22.907803 83.936659 25.291003 129.915694 55.732628 156.814676 L 99.097535 195.130538 C 103.749709 199.242484 110.904503 198.899822 115.120536 194.336185 Z M 115.120536 194.336185 "
            transform="matrix(0.752336,0,0,0.752381,0,0)" />
    </g>
</svg>